HIERARCHY
ROOT root
{
	OFFSET 0.000000 0.000000 0.000000
	CHANNELS 6 Xposition Yposition Zposition Zrotation Yrotation Xrotation
	JOINT lhip
	{
		OFFSET 0.058581 -0.082280 -0.017664
		CHANNELS 3 Zrotation Yrotation Xrotation
		JOINT lknee
		{
			OFFSET 0.043451 -0.386469 0.008037
			CHANNELS 3 Zrotation Yrotation Xrotation
			JOINT lankle
			{
				OFFSET -0.014790 -0.426874 -0.037428
				CHANNELS 3 Zrotation Yrotation Xrotation
				JOINT ltoe
				{
					OFFSET 0.041054 -0.060286 0.122042
					CHANNELS 3 Zrotation Yrotation Xrotation
					End Site
					{
						OFFSET 0.000000 0.000000 0.000000
					}
				}
			}
		}
	}
	JOINT rhip
	{
		OFFSET -0.060310 -0.090513 -0.013543
		CHANNELS 3 Zrotation Yrotation Xrotation
		JOINT rknee
		{
			OFFSET -0.043257 -0.383688 -0.004843
			CHANNELS 3 Zrotation Yrotation Xrotation
			JOINT rankle
			{
				OFFSET 0.019056 -0.420046 -0.034562
				CHANNELS 3 Zrotation Yrotation Xrotation
				JOINT rtoe
				{
					OFFSET -0.034840 -0.062106 0.130323
					CHANNELS 3 Zrotation Yrotation Xrotation
					End Site
					{
						OFFSET 0.000000 0.000000 0.000000
					}
				}
			}
		}
	}
	JOINT lowerback
	{
		OFFSET 0.004439 0.124404 -0.038385
		CHANNELS 3 Zrotation Yrotation Xrotation
		JOINT upperback
		{
			OFFSET 0.004488 0.137956 0.026820
			CHANNELS 3 Zrotation Yrotation Xrotation
			JOINT chest
			{
				OFFSET -0.002265 0.056032 0.002855
				CHANNELS 3 Zrotation Yrotation Xrotation
				JOINT lowerneck
				{
					OFFSET -0.013390 0.211636 -0.033468
					CHANNELS 3 Zrotation Yrotation Xrotation
					JOINT upperneck
					{
						OFFSET 0.010113 0.088937 0.050410
						CHANNELS 3 Zrotation Yrotation Xrotation
						End Site
						{
							OFFSET 0.000000 0.000000 0.000000
						}
					}
				}
				JOINT lclavicle
				{
					OFFSET 0.071702 0.114000 -0.018898
					CHANNELS 3 Zrotation Yrotation Xrotation
					JOINT lshoulder
					{
						OFFSET 0.122921 0.045205 -0.019046
						CHANNELS 3 Zrotation Yrotation Xrotation
						JOINT lelbow
						{
							OFFSET 0.255332 -0.015649 -0.022946
							CHANNELS 3 Zrotation Yrotation Xrotation
							JOINT lwrist
							{
								OFFSET 0.265709 0.012698 -0.007375
								CHANNELS 3 Zrotation Yrotation Xrotation
								End Site
								{
									OFFSET 0.000000 0.000000 0.000000
								}
							}
						}
					}
				}
				JOINT rclavicle
				{
					OFFSET -0.082954 0.112472 -0.023707
					CHANNELS 3 Zrotation Yrotation Xrotation
					JOINT rshoulder
					{
						OFFSET -0.113228 0.046853 -0.008472
						CHANNELS 3 Zrotation Yrotation Xrotation
						JOINT relbow
						{
							OFFSET -0.260127 -0.014369 -0.031269
							CHANNELS 3 Zrotation Yrotation Xrotation
							JOINT rwrist
							{
								OFFSET -0.269108 0.006794 -0.006027
								CHANNELS 3 Zrotation Yrotation Xrotation
								End Site
								{
									OFFSET 0.000000 0.000000 0.000000
								}
							}
						}
					}
				}
			}
		}
	}
}
MOTION
Frames: 17
Frame Time: 0.033333
-0.034778 0.156118 0.752827 -172.766707 -0.760692 103.990091 23.002080 27.331894 -63.280068 -15.010327 20.450231 76.407003 2.327497 -3.084327 -33.065176 0.000000 -0.000000 0.000000 -25.201302 -9.074301 -52.576171 -0.954302 -14.068189 90.493638 10.954543 -10.775300 -29.536049 0.000000 -0.000000 0.000000 -22.923868 25.866716 49.720727 -2.354632 12.650834 -6.145442 5.628781 5.903003 0.442272 -0.618754 3.289604 -22.221482 -0.896038 -19.207859 12.547853 -23.519393 -13.373367 3.956187 -25.938084 -11.502416 10.835491 2.588774 -69.400347 4.298900 13.748995 -8.379904 -24.514655 27.190027 32.901937 2.180685 20.327613 47.048642 0.286836 -12.288723 42.214349 -26.760821 8.496692 8.334338 -18.440753 
-0.034586 0.152057 0.754498 -176.542314 -1.295861 102.896973 23.475477 28.253035 -60.350787 -14.571054 20.403253 76.064808 1.910354 -1.611207 -32.849857 0.000000 -0.000000 0.000000 -25.162767 -8.406305 -53.765084 0.521303 -13.118472 89.654230 9.827679 -10.920465 -29.561641 0.000000 -0.000000 0.000000 -21.944214 27.377778 51.743680 -2.169027 11.407469 -7.220929 5.622019 4.463516 0.374205 -1.087862 3.158848 -21.974618 -1.080569 -18.333563 12.555212 -24.931884 -12.349119 4.592310 -23.978194 -11.239973 9.792910 0.190427 -68.381701 5.735803 13.877833 -8.802073 -24.023850 28.382027 32.565589 3.081323 20.173614 46.834181 1.228364 -10.974046 43.742339 -25.451655 7.244331 8.450990 -19.386091 
-0.031979 0.147036 0.752870 -178.562237 -1.388002 103.279702 23.816276 28.594984 -60.251681 -13.645034 20.564603 76.619969 1.490739 -1.217749 -32.930473 0.000000 -0.000000 0.000000 -25.459253 -8.291770 -55.317383 1.085258 -13.494125 89.682286 9.754062 -10.026653 -30.288935 0.000000 -0.000000 0.000000 -22.777757 26.156264 49.869727 -1.797681 11.592645 -5.875018 5.807468 4.226554 -0.351769 -1.427489 3.882476 -21.338135 -1.232500 -18.039143 12.168603 -24.959589 -12.122586 4.346830 -24.052108 -10.142914 9.735181 -0.170312 -68.045835 5.947683 13.447712 -8.591068 -24.000410 29.435286 32.238765 3.754319 20.630572 46.538022 1.967462 -11.280626 44.992690 -24.296860 7.892150 8.485358 -19.239148 
-0.027800 0.146268 0.753631 178.529841 -1.790907 101.918520 24.339701 30.025324 -57.221210 -13.491629 20.147279 76.358586 0.869535 -0.998824 -33.093311 0.000000 -0.000000 0.000000 -25.295218 -7.146894 -55.332527 1.693028 -12.638953 89.301683 9.552072 -9.134867 -30.825541 0.000000 -0.000000 0.000000 -23.770766 27.182051 51.984561 -1.630022 11.878784 -8.301216 6.137900 3.947097 0.221261 -1.289766 5.215661 -22.331085 -2.482659 -18.230681 13.839676 -25.034910 -11.318149 4.543735 -23.532876 -10.911332 9.348417 -1.351140 -66.867605 7.380266 13.312907 -8.906748 -24.767336 30.305270 31.240830 3.504571 21.369431 46.786924 3.274494 -10.485180 45.577789 -23.154999 7.423769 8.549770 -21.416486 
-0.022516 0.141728 0.749712 177.732971 -1.604378 102.952762 24.813469 30.054309 -58.456485 -12.900871 20.586051 76.709219 0.642735 -0.587412 -32.771897 0.000000 -0.000000 0.000000 -25.656176 -7.352162 -57.145891 2.317180 -13.484857 89.579360 9.257258 -8.732785 -30.969542 0.000000 -0.000000 0.000000 -24.597005 24.338173 48.309282 -1.491963 12.747520 -4.790285 6.281271 4.223444 -0.846323 -1.670817 5.059248 -20.638279 -1.647542 -17.322969 11.880678 -25.830463 -12.041945 4.733425 -22.600326 -9.592742 9.096097 -0.792979 -66.494765 5.679391 13.267022 -8.522650 -23.244831 31.701026 31.609292 5.222537 19.832836 46.082773 1.932882 -10.008562 46.005492 -23.203384 6.908625 8.694466 -21.086008 
-0.018887 0.139647 0.749320 174.666855 -1.886759 102.451386 25.869027 31.430884 -55.897235 -12.637575 20.823440 76.587375 0.411547 -0.232231 -33.031908 0.000000 -0.000000 0.000000 -25.635096 -5.999185 -58.335649 3.205278 -12.856559 89.617275 8.682535 -7.737924 -31.068571 0.000000 -0.000000 0.000000 -25.122877 24.729653 47.311377 -1.530244 12.813295 -3.159307 6.485610 3.870915 -2.015209 -2.470519 5.809794 -19.705238 -1.458991 -16.071701 11.112647 -27.096963 -12.085141 5.937979 -21.191548 -8.470986 8.124502 0.448633 -65.687451 3.270630 12.405291 -8.731139 -21.713897 33.530139 31.838290 6.612806 19.928587 45.927708 1.568325 -10.576104 46.087461 -23.659564 7.121697 8.504297 -19.971409 
-0.012905 0.134950 0.748972 172.476871 -0.446398 102.843878 27.969663 33.169049 -55.153407 -13.082032 20.695169 76.677916 0.432473 0.848257 -32.949087 0.000000 -0.000000 0.000000 -24.417879 -4.022343 -60.154058 4.447558 -13.607246 89.283857 7.441442 -8.792110 -30.658565 0.000000 -0.000000 0.000000 -25.205297 22.491646 44.384771 -2.233901 14.685086 -0.750118 6.270589 4.413887 -2.565209 -3.379593 6.083636 -19.286079 -0.489185 -15.088730 10.109638 -27.993209 -12.985781 5.836155 -19.747556 -7.352116 8.437060 1.960196 -64.722617 0.146367 12.953277 -7.985700 -19.839215 34.706692 32.672014 7.564733 19.827735 45.019051 1.242211 -12.128716 46.372613 -24.955416 7.132443 7.608869 -19.330289 
-0.007137 0.130567 0.749891 170.202438 0.555179 103.544874 29.894961 34.748161 -54.015554 -13.647266 21.237860 76.828610 1.010295 1.626753 -33.498246 0.000000 -0.000000 0.000000 -23.531368 -2.045436 -61.853149 5.784785 -14.126494 88.716102 6.151558 -10.489169 -30.770628 0.000000 -0.000000 0.000000 -24.578961 22.662549 42.221044 -2.004336 15.061369 0.346158 5.986595 4.153347 -2.588836 -3.807048 6.781954 -19.433105 -0.831275 -14.679238 10.569742 -28.508954 -12.898436 7.001708 -19.243201 -7.609660 7.820909 2.695301 -63.848066 -0.397875 13.289468 -7.310107 -20.146136 35.600239 32.292949 8.642413 19.862855 45.346529 0.724992 -13.098095 46.317398 -24.205671 7.350961 7.400246 -20.956826 
-0.004060 0.127793 0.749861 169.188630 0.463178 103.943916 30.605549 34.884421 -53.437097 -13.561053 22.042557 77.196993 1.361252 1.588652 -34.205166 0.000000 -0.000000 0.000000 -23.854434 -1.702684 -62.502060 6.491357 -14.660638 88.476391 5.922019 -10.642880 -31.150190 0.000000 -0.000000 0.000000 -24.449754 21.661117 40.632446 -1.622848 15.383808 2.687178 5.681849 4.133575 -3.271077 -4.026573 7.430672 -20.124233 -1.716924 -14.581518 11.336821 -28.724998 -13.128824 7.112466 -19.774146 -7.307656 7.962935 4.048708 -62.620964 -1.650204 13.322433 -7.197291 -19.956157 36.726943 32.505610 9.679210 19.106906 45.376191 0.649725 -12.943327 45.475829 -24.669514 8.064840 7.320021 -23.080023 
-0.001262 0.126511 0.750248 168.147257 0.157536 104.214542 30.921680 35.406644 -52.642783 -13.245022 22.716638 77.356027 1.546604 1.122708 -34.576287 0.000000 -0.000000 0.000000 -23.851743 -1.486536 -63.101749 6.738675 -14.515809 88.383171 5.742091 -10.550923 -31.350006 0.000000 -0.000000 0.000000 -24.218528 21.016678 40.221403 -1.860147 15.524049 3.484931 5.374294 4.163520 -3.626477 -4.169079 7.824730 -20.437112 -2.033672 -14.236818 11.730488 -28.865336 -13.386820 7.239853 -20.172545 -6.801569 7.826506 4.239027 -61.653024 -1.983398 13.042377 -7.292763 -19.745629 37.326837 32.814590 10.142446 19.528887 45.233854 0.556047 -13.929298 44.484715 -26.305143 8.392111 7.214404 -23.422893 
0.001587 0.125534 0.750910 167.193777 -0.257886 104.322987 31.083035 35.896937 -51.721622 -13.139680 23.194293 77.220314 1.491166 0.809264 -34.700385 0.000000 -0.000000 0.000000 -23.949360 -1.202099 -63.574105 6.936324 -14.341448 88.355039 5.596782 -10.545485 -31.435412 0.000000 -0.000000 0.000000 -24.142710 20.582138 40.137461 -2.054557 15.884723 4.338080 5.204539 4.081861 -4.005006 -4.467249 8.270304 -21.086666 -2.713479 -13.797908 12.171324 -29.033959 -13.283303 7.105082 -20.499729 -6.804988 7.796910 4.065360 -60.896498 -1.768801 12.368596 -7.433524 -19.549685 37.814653 32.919640 10.208700 19.303283 45.719871 0.231915 -13.999424 42.887674 -27.898146 8.131172 7.273257 -23.808520 
0.003806 0.125511 0.750791 166.694716 -0.674203 104.466554 30.913652 36.324742 -51.327016 -13.256995 23.395359 77.052478 1.501181 0.664782 -34.611897 0.000000 -0.000000 0.000000 -24.121816 -1.337666 -63.866699 7.155554 -14.248043 88.407541 5.383651 -10.408461 -31.575146 0.000000 -0.000000 0.000000 -23.763704 20.148250 40.560418 -2.247483 16.018920 4.383097 5.022201 4.065261 -4.204546 -4.856847 8.339883 -21.041027 -2.939618 -13.361225 12.416834 -29.407511 -13.193419 6.973313 -20.613998 -6.456322 7.973908 3.009971 -60.392716 -0.810543 12.176673 -7.513250 -19.264973 38.193228 32.946971 10.661309 18.831714 45.787383 -0.608832 -14.063512 41.722878 -29.016052 8.210883 7.141555 -24.184774 
0.005371 0.125797 0.750659 166.556883 -1.114334 104.633893 30.610579 36.467907 -51.272008 -13.223291 23.596978 77.016661 1.483259 0.371260 -34.479909 0.000000 -0.000000 0.000000 -24.313552 -1.726697 -63.928022 7.025894 -14.207605 88.424384 5.247564 -10.161366 -31.902541 0.000000 -0.000000 0.000000 -23.294052 19.881970 41.231272 -2.410469 15.904530 4.047472 5.011685 4.095306 -4.128711 -4.998839 8.193747 -20.924543 -3.038651 -12.941368 12.285078 -29.752060 -13.145213 6.883607 -20.890056 -6.079606 8.235974 2.135930 -60.078775 0.274482 11.958762 -7.644263 -19.196108 38.265805 33.110543 10.723472 18.357026 45.704327 -1.451060 -14.275465 40.527518 -30.516814 7.940750 7.175620 -24.808002 
0.006448 0.126122 0.749596 166.693262 -1.404755 104.859362 30.227449 36.499135 -51.652754 -13.165138 23.617691 77.129274 1.532478 0.145590 -34.403557 0.000000 -0.000000 0.000000 -24.512767 -2.132734 -64.101443 6.966101 -14.292165 88.631758 5.192840 -10.030659 -32.131032 0.000000 -0.000000 0.000000 -22.589113 19.653362 41.860985 -2.454056 15.907341 4.106803 4.949148 4.028188 -4.189865 -5.017710 8.104691 -21.457407 -3.662891 -12.744674 12.477352 -29.889899 -13.119240 6.776042 -21.444681 -5.766700 8.675494 2.053975 -60.143153 1.026662 11.106758 -7.836006 -19.085250 38.034797 33.291548 10.429154 17.852427 45.765661 -2.172550 -14.786726 39.284067 -32.121193 7.873685 6.988124 -24.860960 
0.007057 0.126466 0.748085 167.162034 -1.662449 105.106436 29.734590 36.261764 -52.427832 -13.052883 23.608757 77.312669 1.621653 0.130794 -34.303116 0.000000 -0.000000 0.000000 -24.733713 -2.521944 -64.297806 6.784079 -14.400561 88.966045 5.144086 -10.213048 -32.223750 0.000000 -0.000000 0.000000 -21.739751 19.509998 42.864638 -2.634369 15.832021 3.653129 4.871189 4.037045 -4.065085 -4.925506 7.776087 -21.983835 -3.923609 -12.614943 12.549806 -29.912431 -13.021087 6.635111 -21.852725 -5.696657 8.991461 1.542825 -60.431767 2.204028 10.257281 -7.915084 -19.096759 37.473752 33.416607 9.958573 17.285293 45.884616 -3.012246 -15.195093 37.869065 -33.416039 7.883344 7.080185 -24.555149 
0.006937 0.126965 0.746031 167.706344 -1.985240 105.429117 29.195024 35.920073 -53.395833 -12.805937 23.747947 77.697553 1.646193 0.103257 -34.120256 0.000000 -0.000000 0.000000 -24.989182 -2.806968 -64.614608 6.549303 -14.281990 89.415622 5.265679 -10.625783 -32.374142 0.000000 -0.000000 0.000000 -20.997865 19.651964 43.939564 -2.889460 15.650978 2.997994 4.831343 4.084746 -4.114778 -4.821911 7.375702 -22.273332 -3.611517 -12.731758 12.619284 -29.783474 -13.157656 6.638820 -22.297189 -5.535579 9.368848 1.091199 -60.589384 3.158350 10.078235 -8.386084 -19.011966 37.158768 33.730314 9.964939 15.974093 45.855281 -4.579384 -15.478672 36.230357 -35.071195 7.732355 7.128145 -24.460411 
0.005895 0.127701 0.743511 168.388312 -2.372311 105.846041 28.495093 35.457789 -54.672927 -12.509527 23.927557 78.203924 1.693877 0.142565 -33.985031 0.000000 -0.000000 0.000000 -25.368662 -3.233645 -64.926450 6.383015 -14.199903 89.862467 5.436515 -11.169176 -32.670787 0.000000 -0.000000 0.000000 -20.107626 19.978191 44.730776 -3.001665 15.484817 2.614538 4.809223 3.965029 -3.782331 -4.503488 6.978852 -22.918705 -4.228683 -12.639931 12.699109 -30.297523 -13.300210 6.426620 -22.012826 -5.664421 9.943177 0.857260 -60.554721 3.139444 9.659046 -8.844897 -18.435914 37.397061 34.174010 9.835813 13.290067 45.961861 -6.326026 -15.060465 34.062624 -36.986216 7.504518 7.211740 -23.592705 
